<?xml version="1.0" encoding="UTF-8"?>
<!DOCTYPE svg PUBLIC "-//W3C//DTD SVG 1.1//EN" "http://www.w3.org/Graphics/SVG/1.1/DTD/svg11.dtd">
<!-- Creator: CorelDRAW 2019 (64-Bit) -->
<svg xmlns="http://www.w3.org/2000/svg" xml:space="preserve" width="215.9mm" height="279.4mm" version="1.1" style="shape-rendering:geometricPrecision; text-rendering:geometricPrecision; image-rendering:optimizeQuality; fill-rule:evenodd; clip-rule:evenodd"
viewBox="-15000 6000 25000 6-000"
 xmlns:xlink="http://www.w3.org/1999/xlink">
 <defs>
  <style type="text/css">
   <![CDATA[
    .fil8 {fill:black}
    .fil0 {fill:#040202}
    .fil5 {fill:#470507}
    .fil3 {fill:#49626E}
    .fil2 {fill:#9CC5D5}
    .fil10 {fill:#C6BB9E}
    .fil12 {fill:#EA5814}
    .fil13 {fill:#EA6720}
    .fil11 {fill:#EC5014}
    .fil1 {fill:#ED1C23}
    .fil4 {fill:#F7F7F7}
    .fil9 {fill:#F9F0DC}
    .fil7 {fill:#FF3399}
    .fil14 {fill:black;fill-opacity:0.188235}
    .fil6 {fill:black;fill-opacity:0.211765}
   ]]>
  </style>
 </defs>
 <g id="Capa_x0020_1">
  <metadata id="CorelCorpID_0Corel-Layer"/>
  <path class="fil0" d="M-11164.35 15881.36c74.96,309.24 134.13,483.94 452.39,666.7 576.29,285.46 1273.1,276.6 1771.84,-114.1 244.48,-251.63 250.59,-516.15 280.09,-606.49 83.46,-412.72 39.86,-584.94 150.32,-828.33 315.87,-287.63 301.5,641.45 488.01,980.63 169.92,309.03 392.01,351.86 739.72,320.87 201.03,-17.92 537.79,26.76 710.16,-22.83 229.17,-65.95 360.89,-217.31 421.4,-307.37 192.83,-175.41 267.14,-1010.9 322.25,-1357.76 118.75,-747.3 290.13,-1505.91 260.72,-2279.36 -11.65,-306.72 -78.39,-479.67 -108.98,-749.08 -38.37,-337.81 115.31,-408.75 216.27,-630.1 266.3,-583.86 148.38,-1494.71 -365.86,-1945.06 -254.19,-222.62 -192.25,-172.2 -350.26,-490.47 -290.53,-585.16 -756.34,-939.76 -1428.44,-1143.31 -544.84,-165.01 -949.32,-140.06 -1547.42,-113.9 -510.46,22.34 -849.49,-18.07 -1283.09,428.36 -496.91,511.63 -630.34,1121.58 -743.39,1802.61 -60.85,366.56 -218.08,218.98 -560.02,299.63 -449.11,105.94 -804.63,232.63 -869.82,835.94 -28.04,259.53 -5.93,569.04 -14.76,837.38 -8.74,265.69 -44.74,547.32 -45.77,799.66 -3.61,896.4 -157.89,2327.62 802.92,2594.49 289.8,80.48 590.53,-104.82 639.98,235.27 26.06,179.22 55.63,598.11 61.74,786.62z"/>
  <path class="fil1" d="M-10241.33 8417.25l-69.65 482.16c-23.58,112.54 -24.54,31.1 -45.67,140.15 -23.33,119.97 -2.12,204.53 -32.71,331.06 -64.09,265.14 23.16,1979.84 134.33,2315.71 90.75,274.19 25.87,72.4 60.86,300.43 15.73,102.41 46.95,215.9 75.51,313.37 37.07,126.49 39.69,171.03 88.05,276.89 22.66,49.48 38.11,62.72 67.29,109.63 43.17,69.45 -0.91,5.69 35.99,57.04 103.53,143.84 39.15,45.08 89.67,176.38 43.21,112.21 34.2,52.1 77.25,109.8l68.99 114c132.35,154.75 123.59,211 282.58,289.88 361.78,179.45 332.84,47.61 923.85,189.62 330.06,79.29 1289.04,33.79 1575.76,-206.19l108.47 -71.94c308.06,-232.47 428.49,-798.07 482.91,-1172.92 33.67,-232.22 56.83,-427.08 66.88,-681.05 -2.99,-55.38 -15.32,-82.2 -150.94,-51.23 -192.53,44 -599.14,195.48 -767.31,176.8 -20.09,18.56 -4.4,30.84 -123.21,56.08 -239.15,50.81 -638.99,89.88 -873.58,62.11 -389.63,-46.12 -875.53,-244.72 -1099.45,-538.71 -63.6,-83.44 -152.31,-238.19 -195.4,-352.35 -114.36,-303.17 -160.4,-539.87 -168.54,-919.33 -17.02,-795.17 153.64,-1120.21 954.04,-1234.78 167.17,-23.99 294.86,-63.6 478.96,-71.57 271.37,-11.75 1082.6,13.2 1171.98,-43.17l1.66 -93.24c-142.68,-88.42 -174.44,-228.69 -620.69,-475.06 -273.69,-151.15 -578.02,-176.35 -963.25,-177.47 -603.8,-1.78 -918.71,-145.41 -1388.58,275.81 -76.8,68.79 -234.92,203.45 -246.05,312.09zm-1642.84 2105.08c-25.28,200.84 -123.5,306.98 -57.95,529.82 394.86,-125.74 109.84,-107.85 581.83,-143.76 45.21,-104.32 84.27,-387.59 44.83,-484.03 -148.11,-75.26 -251.1,-31.67 -422.01,-41.09 -62.22,19.05 -128.6,66.37 -146.7,139.06zm153.72 -165.55l-7.02 26.49c170.91,9.42 273.9,-34.17 422.01,41.09 39.44,96.44 0.38,379.71 -44.83,484.03 -471.99,35.91 -186.97,18.02 -581.83,143.76 -65.55,-222.84 32.67,-328.98 57.95,-529.82 -74.97,45 -26.49,-11.37 -72.32,83.9 -7.72,16.15 -34.12,103.65 -37.69,120.38 -17.68,81.12 -30.84,194.07 -38.65,272.49l51.77 89.42c139.48,2.44 166.5,-19.27 282.9,-68.08 277.14,-116.24 375.98,123.7 424.18,-283.57 16.77,-141.81 31.13,-194.03 7.05,-339.7 -145.41,-84.56 -270.45,-64.34 -463.52,-40.39zm0 0c193.07,-23.95 318.11,-44.17 463.52,40.39 24.08,145.67 9.72,197.89 -7.05,339.7 -48.2,407.27 -147.04,167.33 -424.18,283.57 -116.4,48.81 -143.42,70.52 -282.9,68.08l-51.77 -89.42c-94.85,233.01 -23.87,685.36 -86.13,940.46 -35.58,145.75 -49.4,1324.86 3.48,1532.79 22.46,88.22 13,132.55 20.05,226.33 16.36,217.52 125.12,486.39 341.86,567.97 109.75,41.34 195.6,84.22 346.12,62.31 182.24,-26.49 177.05,-151.11 175.27,-336.42 -1.83,-179.83 -34.95,-306.03 -37.03,-476.06 -4.36,-348.66 -3.53,-697.94 -9.51,-1046.48 -8.17,-470.25 -8.42,-1081.27 22.34,-1546.66 11.45,-173.23 41.18,-347.08 23.95,-521.73 -94.15,-93.9 -381.91,-182.36 -498.02,-44.83zm2350.42 5723.41c32.13,-116.48 137.65,-164.6 162.02,-404.08 18.18,-178.54 -4.65,-343.51 17.97,-530.94 37.7,-312.55 -22.99,-721.73 251.28,-791.64 262.6,-67 610.85,23.54 948.67,58.12 116.53,11.95 664.78,22.41 794.76,0.16 222.09,-38.02 181.28,-25.28 254.46,2.74 5.9,2.29 13.91,6.02 20.22,10.22 -17.1,207.22 -303.33,324.66 -485.98,391.66 -300.67,110.26 -315.83,800.61 -136.78,961.84 77.08,69.45 224.95,85.97 354.39,73.48 116.31,-11.25 287.67,-2.2 387.35,-45.25 63.3,-27.32 -5.65,-6.1 58.65,-26.07 229.48,-71.32 71.15,-59.4 219.35,-150.9 3.86,-378.34 -26.32,-720.9 84.69,-1028.25 216.48,-599.69 322.84,-1912.55 246.91,-2571.64 -9.84,-85.56 -11.41,-177.01 -13.66,-264.27 -3.07,-120.3 20.26,-209.05 -35.24,-274.1 -10.05,253.97 -33.21,448.83 -66.88,681.05 -54.42,374.85 -174.85,940.45 -482.91,1172.92l-108.47 71.94c-286.72,239.98 -1245.7,285.48 -1575.76,206.19 -591.01,-142.01 -562.07,-10.17 -923.85,-189.62 -158.99,-78.88 -150.23,-135.13 -282.58,-289.88l-68.99 -114c-43.05,-57.7 -34.04,2.41 -77.25,-109.8 -50.52,-131.3 13.86,-32.54 -89.67,-176.38 -36.9,-51.35 7.18,12.41 -35.99,-57.04 -29.18,-46.91 -44.63,-60.15 -67.29,-109.63 -48.36,-105.86 -50.98,-150.4 -88.05,-276.89 -28.56,-97.47 -59.78,-210.96 -75.51,-313.37 -34.99,-228.03 29.89,-26.24 -60.86,-300.43 -111.17,-335.87 -198.42,-2050.57 -134.33,-2315.71 30.59,-126.53 9.38,-211.09 32.71,-331.06 21.13,-109.05 22.09,-27.61 45.67,-140.15l69.65 -482.16c-26.77,33.04 -3.53,0.5 -30.92,49.4 -91.08,162.56 -46.29,153.1 -161.36,387.68 -81.37,165.92 -219.56,788.27 -233.09,1001.23l-60.86 548.96c-159.36,1034.9 -13.28,2516.68 -7.6,3611.1 2.25,424.63 87.8,1257.99 139.03,1707.48 31.42,275.72 -18.68,322.67 216.77,407.44 198.85,71.61 265.56,101.62 521.81,100.55 266.3,-1.13 303.5,-60.49 477.52,-150.9z"/>
  <path class="fil2" d="M-8796.91 9264.2c-79.27,140.11 186.44,711.71 298.64,845.09 357.52,424.96 1176.55,300.4 1733.09,240.06 532.48,-57.74 582.26,-8.67 894.16,-264.02l48.13 -36.36c-28.59,-161.33 -42.67,-237.98 -139.15,-379.34 -198.43,-290.72 -640.76,-478.16 -1014.35,-555.39 -290.21,-59.99 -673.44,-73.47 -967.32,-23.45 -272.8,46.43 -587.81,136.77 -853.2,173.41z"/>
  <path class="fil3" d="M-5822.89 10048.97l-48.13 36.36c-311.9,255.35 -361.68,206.28 -894.16,264.02 -556.54,60.34 -1375.57,184.9 -1733.09,-240.06 -112.2,-133.38 -377.91,-704.98 -298.64,-845.09 -303.67,84.83 -443.84,888.81 -219.35,1271.88 194.47,331.83 636.38,586.7 1094.23,642.51 500.15,60.98 971.77,-40.86 1400.73,-215.23 177.79,-72.27 414.14,-164.03 544.64,-320.56 136.01,-163.14 207.2,-414.79 153.77,-593.83z"/>
  <path class="fil4" d="M-7423.79 9224.73c-154.28,-0.29 -355.38,-8.03 -447.47,137.82 -92.53,146.55 -48.21,352.31 112.81,394.62 118.32,31.1 1259.34,179.2 1405.51,55.26 146.99,-124.65 -6.34,-318.44 -97.73,-382.26 -138.87,-96.98 -534.37,-150.73 -713.79,-193.25 -65.84,-15.6 -132.48,-11.95 -259.33,-12.19z"/>
  <path class="fil5" d="M-7169.22 11616.82c-121.6,-17.24 -335.95,35.28 -458.46,54.31 -471.15,73.17 -883.74,-13.69 -1281.06,-243.31 -482.14,-278.64 -653.53,-876.81 -659.39,-1435.92 -8.24,-785.32 58.89,-1094.44 810,-1241.7 863.07,-169.22 1512.88,-66.16 1674.69,-95.97 40.94,-7.54 74.45,-19.44 89.2,-56.82 50.13,-127.02 -26.51,-113.28 -28.53,-115.51l-1.66 93.27c-89.35,56.36 -900.65,31.39 -1171.93,43.11 -184.15,7.97 -311.83,47.61 -479,71.54 -800.38,114.61 -971.04,439.62 -954.05,1234.81 8.11,379.48 54.17,616.16 168.54,919.33 43.08,114.21 131.83,268.93 195.38,352.35 223.92,293.99 709.88,492.56 1099.47,538.73 234.62,27.81 634.48,-11.3 873.6,-62.13 118.82,-25.25 103.12,-37.52 123.2,-56.09z"/>
  <path class="fil6" d="M-9380.03 16080.19c32.13,-116.48 137.65,-164.56 162.02,-404.12 18.18,-178.5 -4.65,-343.52 17.97,-530.9 37.7,-312.55 -22.95,-721.73 251.28,-791.68 262.64,-66.96 610.85,23.54 948.67,58.16 116.53,11.91 664.78,22.41 794.76,0.16 222.13,-37.98 181.24,-25.28 254.42,2.74 5.94,2.29 13.95,6.02 20.26,10.17 -17.14,207.27 -303.37,324.71 -485.98,391.67 -300.67,110.3 -315.87,800.65 -136.78,961.88 77.08,69.45 224.91,85.93 354.39,73.48 116.31,-11.25 287.63,-2.2 387.35,-45.25 63.3,-27.32 -5.65,-6.1 58.61,-26.07 229.52,-71.32 71.19,-59.36 219.35,-150.94 3.94,-378.3 -26.23,-720.86 84.73,-1028.21 216.48,-599.65 322.84,-1912.59 246.91,-2571.68 -9.84,-85.48 -11.41,-176.97 -13.66,-264.23 -3.03,-120.34 20.26,-209.05 -35.2,-274.1 -10.09,253.97 -33.21,448.87 -66.92,681.05 -54.42,374.85 -174.85,940.5 -482.91,1172.88l-108.47 71.94c-286.72,240.02 -1245.7,285.52 -1575.76,206.23 -591.01,-142.01 -562.12,-10.21 -923.81,-189.62 -159.03,-78.88 -150.27,-135.13 -282.62,-289.88l-68.99 -114c-43.05,-57.7 -34.04,2.41 -77.21,-109.84 -50.52,-131.26 13.82,-32.5 -89.71,-176.38 -36.9,-51.27 7.18,12.45 -35.99,-57 -29.14,-46.91 -44.63,-60.15 -67.25,-109.63 -48.4,-105.82 -50.98,-150.4 -88.09,-276.93 -28.56,-97.47 -59.78,-210.92 -75.51,-313.33 -34.99,-228.03 29.89,-26.24 -60.86,-300.43 -111.12,-335.87 -198.47,-2050.62 -134.33,-2315.71 30.59,-126.53 9.42,-211.09 32.71,-331.06 21.17,-109.05 22.13,-27.61 45.71,-140.15l69.61 -482.12c-26.81,33.04 -3.53,0.46 -30.97,49.4 -91.03,162.52 -46.24,153.06 -161.31,387.64 -81.37,165.92 -219.56,788.23 -233.09,1001.23l-60.9 549c-159.37,1034.86 -13.24,2516.64 -7.51,3611.02 2.2,424.67 87.75,1258.03 138.98,1707.52 31.42,275.72 -18.68,322.67 216.73,407.4 198.93,71.61 265.6,101.62 521.89,100.59 266.26,-1.13 303.46,-60.53 477.48,-150.9zm0 0c127.77,-67.75 164.59,-178.63 217.06,-322.22 48.12,-131.68 23.04,-334.17 25.99,-492.25 5.48,-293.95 -26.77,-760.63 185.81,-860.63 157.08,-73.89 742.82,43.17 944.86,59.74 410.39,33.66 806.04,-23.75 1007.71,-8.35 -89.59,208.56 -359.04,224.79 -520.94,350.57 -200.55,155.76 -215.07,387.73 -203.49,710.15 17.93,501.59 551.44,403.54 932.03,341.69 161.48,-26.24 236.83,-65.72 257.33,-229.36 -148.2,91.5 10.13,79.58 -219.35,150.9 -64.3,19.97 4.65,-1.25 -58.65,26.07 -99.68,43.05 -271.04,34 -387.35,45.25 -129.44,12.49 -277.31,-4.03 -354.39,-73.48 -179.05,-161.23 -163.89,-851.58 136.78,-961.84 182.65,-67 468.88,-184.44 485.98,-391.66 -6.31,-4.2 -14.32,-7.93 -20.22,-10.22 -73.18,-28.02 -32.37,-40.76 -254.46,-2.74 -129.98,22.25 -678.23,11.79 -794.76,-0.16 -337.82,-34.58 -686.07,-125.12 -948.67,-58.12 -274.27,69.91 -213.58,479.09 -251.28,791.64 -22.62,187.43 0.21,352.4 -17.97,530.94 -24.37,239.48 -129.89,287.6 -162.02,404.08z"/>
  <path class="fil6" d="M-11730.46 10356.77c193.09,-23.94 318.13,-44.14 463.54,40.42 24.09,145.67 9.72,197.88 -7.05,339.66 -48.19,407.28 -147.05,167.37 -424.16,283.59 -116.42,48.82 -143.45,70.55 -282.91,68.1l-51.8 -89.4c-94.86,232.95 -23.86,685.33 -86.12,940.42 -35.59,145.79 -49.38,1324.84 3.5,1532.78 22.44,88.25 12.96,132.54 20.02,226.33 16.35,217.56 125.15,486.38 341.87,567.98 109.79,41.34 195.6,84.21 346.14,62.32 182.2,-26.51 177.03,-151.15 175.2,-336.44 -1.76,-179.82 -34.89,-306.03 -37.01,-476.06 -4.34,-348.64 -3.46,-697.95 -9.51,-1046.46 -8.17,-470.25 -8.44,-1081.25 22.37,-1546.65 11.48,-173.24 41.16,-347.08 23.97,-521.72 -94.21,-93.93 -381.92,-182.35 -498.05,-44.87z"/>
  <path class="fil0" d="M7690.07 15868.61c-74.96,309.24 -134.13,483.94 -452.39,666.7 -576.29,285.46 -1273.1,276.6 -1771.84,-114.1 -244.48,-251.63 -250.59,-516.15 -280.09,-606.49 -83.46,-412.72 -39.86,-584.94 -150.32,-828.33 -315.87,-287.63 -301.5,641.45 -488.01,980.63 -169.92,309.03 -392.01,351.86 -739.72,320.87 -201.03,-17.92 -537.79,26.76 -710.16,-22.83 -229.17,-65.95 -360.89,-217.31 -421.4,-307.37 -192.83,-175.41 -267.14,-1010.9 -322.25,-1357.76 -118.75,-747.3 -290.13,-1505.91 -260.72,-2279.36 11.65,-306.72 78.39,-479.67 108.98,-749.08 38.37,-337.81 -115.31,-408.75 -216.27,-630.1 -266.3,-583.86 -148.38,-1494.71 365.86,-1945.06 254.19,-222.62 192.25,-172.2 350.26,-490.47 290.53,-585.16 756.34,-939.76 1428.44,-1143.31 544.84,-165.01 949.32,-140.06 1547.42,-113.9 510.46,22.34 849.49,-18.07 1283.09,428.36 496.91,511.63 630.34,1121.58 743.39,1802.61 60.85,366.56 218.08,218.98 560.02,299.63 449.11,105.94 804.63,232.63 869.82,835.94 28.04,259.53 5.93,569.04 14.76,837.38 8.74,265.69 44.74,547.32 45.77,799.66 3.61,896.4 157.89,2327.62 -802.92,2594.49 -289.8,80.48 -590.53,-104.82 -639.98,235.27 -26.06,179.22 -55.63,598.11 -61.74,786.62z"/>
  <path class="fil7" d="M6767.05 8404.5l69.65 482.16c23.58,112.54 24.54,31.1 45.67,140.15 23.33,119.97 2.12,204.53 32.71,331.06 64.09,265.14 -23.16,1979.84 -134.33,2315.71 -90.75,274.19 -25.87,72.4 -60.86,300.43 -15.73,102.41 -46.95,215.9 -75.51,313.37 -37.07,126.49 -39.69,171.03 -88.05,276.89 -22.66,49.48 -38.11,62.72 -67.29,109.63 -43.17,69.45 0.91,5.69 -35.99,57.04 -103.53,143.84 -39.15,45.08 -89.67,176.38 -43.21,112.21 -34.2,52.1 -77.25,109.8l-68.99 114c-132.35,154.75 -123.59,211 -282.58,289.88 -361.78,179.45 -332.84,47.61 -923.85,189.62 -330.06,79.29 -1289.04,33.79 -1575.76,-206.19l-108.47 -71.94c-308.06,-232.47 -428.49,-798.07 -482.91,-1172.92 -33.67,-232.22 -56.83,-427.08 -66.88,-681.05 2.99,-55.38 15.32,-82.2 150.94,-51.23 192.53,44 599.14,195.48 767.31,176.8 20.09,18.56 4.4,30.84 123.21,56.08 239.15,50.81 638.99,89.88 873.58,62.11 389.63,-46.12 875.53,-244.72 1099.45,-538.71 63.6,-83.44 152.31,-238.19 195.4,-352.35 114.36,-303.17 160.4,-539.87 168.54,-919.33 17.02,-795.17 -153.64,-1120.21 -954.04,-1234.78 -167.17,-23.99 -294.86,-63.6 -478.96,-71.57 -271.37,-11.75 -1082.6,13.2 -1171.98,-43.17l-1.66 -93.24c142.68,-88.42 174.44,-228.69 620.69,-475.06 273.69,-151.15 578.02,-176.35 963.25,-177.47 603.8,-1.78 918.71,-145.41 1388.58,275.81 76.8,68.79 234.92,203.45 246.05,312.09zm1642.84 2105.08c25.28,200.84 123.5,306.98 57.95,529.82 -394.86,-125.74 -109.84,-107.85 -581.83,-143.76 -45.21,-104.32 -84.27,-387.59 -44.83,-484.03 148.11,-75.26 251.1,-31.67 422.01,-41.09 62.22,19.05 128.6,66.37 146.7,139.06zm-153.72 -165.55l7.02 26.49c-170.91,9.42 -273.9,-34.17 -422.01,41.09 -39.44,96.44 -0.38,379.71 44.83,484.03 471.99,35.91 186.97,18.02 581.83,143.76 65.55,-222.84 -32.67,-328.98 -57.95,-529.82 74.97,45 26.49,-11.37 72.32,83.9 7.72,16.15 34.12,103.65 37.69,120.38 17.68,81.12 30.84,194.07 38.65,272.49l-51.77 89.42c-139.48,2.44 -166.5,-19.27 -282.9,-68.08 -277.14,-116.24 -375.98,123.7 -424.18,-283.57 -16.77,-141.81 -31.13,-194.03 -7.05,-339.7 145.41,-84.56 270.45,-64.34 463.52,-40.39zm0 0c-193.07,-23.95 -318.11,-44.17 -463.52,40.39 -24.08,145.67 -9.72,197.89 7.05,339.7 48.2,407.27 147.04,167.33 424.18,283.57 116.4,48.81 143.42,70.52 282.9,68.08l51.77 -89.42c94.85,233.01 23.87,685.36 86.13,940.46 35.58,145.75 49.4,1324.86 -3.48,1532.79 -22.46,88.22 -13,132.55 -20.05,226.33 -16.36,217.52 -125.12,486.39 -341.86,567.97 -109.75,41.34 -195.6,84.22 -346.12,62.31 -182.24,-26.49 -177.05,-151.11 -175.27,-336.42 1.83,-179.83 34.95,-306.03 37.03,-476.06 4.36,-348.66 3.53,-697.94 9.51,-1046.48 8.17,-470.25 8.42,-1081.27 -22.34,-1546.66 -11.45,-173.23 -41.18,-347.08 -23.95,-521.73 94.15,-93.9 381.91,-182.36 498.02,-44.83zm-2350.42 5723.41c-32.13,-116.48 -137.65,-164.6 -162.02,-404.08 -18.18,-178.54 4.65,-343.51 -17.97,-530.94 -37.7,-312.55 22.99,-721.73 -251.28,-791.64 -262.6,-67 -610.85,23.54 -948.67,58.12 -116.53,11.95 -664.78,22.41 -794.76,0.16 -222.09,-38.02 -181.28,-25.28 -254.46,2.74 -5.9,2.29 -13.91,6.02 -20.22,10.22 17.1,207.22 303.33,324.66 485.98,391.66 300.67,110.26 315.83,800.61 136.78,961.84 -77.08,69.45 -224.95,85.97 -354.39,73.48 -116.31,-11.25 -287.67,-2.2 -387.35,-45.25 -63.3,-27.32 5.65,-6.1 -58.65,-26.07 -229.48,-71.32 -71.15,-59.4 -219.35,-150.9 -3.86,-378.34 26.32,-720.9 -84.69,-1028.25 -216.48,-599.69 -322.84,-1912.55 -246.91,-2571.64 9.84,-85.56 11.41,-177.01 13.66,-264.27 3.07,-120.3 -20.26,-209.05 35.24,-274.1 10.05,253.97 33.21,448.83 66.88,681.05 54.42,374.85 174.85,940.45 482.91,1172.92l108.47 71.94c286.72,239.98 1245.7,285.48 1575.76,206.19 591.01,-142.01 562.07,-10.17 923.85,-189.62 158.99,-78.88 150.23,-135.13 282.58,-289.88l68.99 -114c43.05,-57.7 34.04,2.41 77.25,-109.8 50.52,-131.3 -13.86,-32.54 89.67,-176.38 36.9,-51.35 -7.18,12.41 35.99,-57.04 29.18,-46.91 44.63,-60.15 67.29,-109.63 48.36,-105.86 50.98,-150.4 88.05,-276.89 28.56,-97.47 59.78,-210.96 75.51,-313.37 34.99,-228.03 -29.89,-26.24 60.86,-300.43 111.17,-335.87 198.42,-2050.57 134.33,-2315.71 -30.59,-126.53 -9.38,-211.09 -32.71,-331.06 -21.13,-109.05 -22.09,-27.61 -45.67,-140.15l-69.65 -482.16c26.77,33.04 3.53,0.5 30.92,49.4 91.08,162.56 46.29,153.1 161.36,387.68 81.37,165.92 219.56,788.27 233.09,1001.23l60.86 548.96c159.36,1034.9 13.28,2516.68 7.6,3611.1 -2.25,424.63 -87.8,1257.99 -139.03,1707.48 -31.42,275.72 18.68,322.67 -216.77,407.44 -198.85,71.61 -265.56,101.62 -521.81,100.55 -266.3,-1.13 -303.5,-60.49 -477.52,-150.9z"/>
  <path class="fil2" d="M5322.63 9251.45c79.27,140.11 -186.44,711.71 -298.64,845.09 -357.52,424.96 -1176.55,300.4 -1733.09,240.06 -532.48,-57.74 -582.26,-8.67 -894.16,-264.02l-48.13 -36.36c28.59,-161.33 42.67,-237.98 139.15,-379.34 198.43,-290.72 640.76,-478.16 1014.35,-555.39 290.21,-59.99 673.44,-73.47 967.32,-23.45 272.8,46.43 587.81,136.77 853.2,173.41z"/>
  <path class="fil3" d="M2348.61 10036.22l48.13 36.36c311.9,255.35 361.68,206.28 894.16,264.02 556.54,60.34 1375.57,184.9 1733.09,-240.06 112.2,-133.38 377.91,-704.98 298.64,-845.09 303.67,84.83 443.84,888.81 219.35,1271.88 -194.47,331.83 -636.38,586.7 -1094.23,642.51 -500.15,60.98 -971.77,-40.86 -1400.73,-215.23 -177.79,-72.27 -414.14,-164.03 -544.64,-320.56 -136.01,-163.14 -207.2,-414.79 -153.77,-593.83z"/>
  <path class="fil4" d="M3949.51 9211.98c154.28,-0.29 355.38,-8.03 447.47,137.82 92.53,146.55 48.21,352.31 -112.81,394.62 -118.32,31.1 -1259.34,179.2 -1405.51,55.26 -146.99,-124.65 6.34,-318.44 97.73,-382.26 138.87,-96.98 534.37,-150.73 713.79,-193.25 65.84,-15.6 132.48,-11.95 259.33,-12.19z"/>
  <path class="fil5" d="M3694.94 11604.07c121.6,-17.24 335.95,35.28 458.46,54.31 471.15,73.17 883.74,-13.69 1281.06,-243.31 482.14,-278.64 653.53,-876.81 659.39,-1435.92 8.24,-785.32 -58.89,-1094.44 -810,-1241.7 -863.07,-169.22 -1512.88,-66.16 -1674.69,-95.97 -40.94,-7.54 -74.45,-19.44 -89.2,-56.82 -50.13,-127.02 26.51,-113.28 28.53,-115.51l1.66 93.27c89.35,56.36 900.65,31.39 1171.93,43.11 184.15,7.97 311.83,47.61 479,71.54 800.38,114.61 971.04,439.62 954.05,1234.81 -8.11,379.48 -54.17,616.16 -168.54,919.33 -43.08,114.21 -131.83,268.93 -195.38,352.35 -223.92,293.99 -709.88,492.56 -1099.47,538.73 -234.62,27.81 -634.48,-11.3 -873.6,-62.13 -118.82,-25.25 -103.12,-37.52 -123.2,-56.09z"/>
  <path class="fil6" d="M5905.75 16067.44c-32.13,-116.48 -137.65,-164.56 -162.02,-404.12 -18.18,-178.5 4.65,-343.52 -17.97,-530.9 -37.7,-312.55 22.95,-721.73 -251.28,-791.68 -262.64,-66.96 -610.85,23.54 -948.67,58.16 -116.53,11.91 -664.78,22.41 -794.76,0.16 -222.13,-37.98 -181.24,-25.28 -254.42,2.74 -5.94,2.29 -13.95,6.02 -20.26,10.17 17.14,207.27 303.37,324.71 485.98,391.67 300.67,110.3 315.87,800.65 136.78,961.88 -77.08,69.45 -224.91,85.93 -354.39,73.48 -116.31,-11.25 -287.63,-2.2 -387.35,-45.25 -63.3,-27.32 5.65,-6.1 -58.61,-26.07 -229.52,-71.32 -71.19,-59.36 -219.35,-150.94 -3.94,-378.3 26.23,-720.86 -84.73,-1028.21 -216.48,-599.65 -322.84,-1912.59 -246.91,-2571.68 9.84,-85.48 11.41,-176.97 13.66,-264.23 3.03,-120.34 -20.26,-209.05 35.2,-274.1 10.09,253.97 33.21,448.87 66.92,681.05 54.42,374.85 174.85,940.5 482.91,1172.88l108.47 71.94c286.72,240.02 1245.7,285.52 1575.76,206.23 591.01,-142.01 562.12,-10.21 923.81,-189.62 159.03,-78.88 150.27,-135.13 282.62,-289.88l68.99 -114c43.05,-57.7 34.04,2.41 77.21,-109.84 50.52,-131.26 -13.82,-32.5 89.71,-176.38 36.9,-51.27 -7.18,12.45 35.99,-57 29.14,-46.91 44.63,-60.15 67.25,-109.63 48.4,-105.82 50.98,-150.4 88.09,-276.93 28.56,-97.47 59.78,-210.92 75.51,-313.33 34.99,-228.03 -29.89,-26.24 60.86,-300.43 111.12,-335.87 198.47,-2050.62 134.33,-2315.71 -30.59,-126.53 -9.42,-211.09 -32.71,-331.06 -21.17,-109.05 -22.13,-27.61 -45.71,-140.15l-69.61 -482.12c26.81,33.04 3.53,0.46 30.97,49.4 91.03,162.52 46.24,153.06 161.31,387.64 81.37,165.92 219.56,788.23 233.09,1001.23l60.9 549c159.37,1034.86 13.24,2516.64 7.51,3611.02 -2.2,424.67 -87.75,1258.03 -138.98,1707.52 -31.42,275.72 18.68,322.67 -216.73,407.4 -198.93,71.61 -265.6,101.62 -521.89,100.59 -266.26,-1.13 -303.46,-60.53 -477.48,-150.9zm0 0c-127.77,-67.75 -164.59,-178.63 -217.06,-322.22 -48.12,-131.68 -23.04,-334.17 -25.99,-492.25 -5.48,-293.95 26.77,-760.63 -185.81,-860.63 -157.08,-73.89 -742.82,43.17 -944.86,59.74 -410.39,33.66 -806.04,-23.75 -1007.71,-8.35 89.59,208.56 359.04,224.79 520.94,350.57 200.55,155.76 215.07,387.73 203.49,710.15 -17.93,501.59 -551.44,403.54 -932.03,341.69 -161.48,-26.24 -236.83,-65.72 -257.33,-229.36 148.2,91.5 -10.13,79.58 219.35,150.9 64.3,19.97 -4.65,-1.25 58.65,26.07 99.68,43.05 271.04,34 387.35,45.25 129.44,12.49 277.31,-4.03 354.39,-73.48 179.05,-161.23 163.89,-851.58 -136.78,-961.84 -182.65,-67 -468.88,-184.44 -485.98,-391.66 6.31,-4.2 14.32,-7.93 20.22,-10.22 73.18,-28.02 32.37,-40.76 254.46,-2.74 129.98,22.25 678.23,11.79 794.76,-0.16 337.82,-34.58 686.07,-125.12 948.67,-58.12 274.27,69.91 213.58,479.09 251.28,791.64 22.62,187.43 -0.21,352.4 17.97,530.94 24.37,239.48 129.89,287.6 162.02,404.08z"/>
  <path class="fil6" d="M8256.18 10344.02c-193.09,-23.94 -318.13,-44.14 -463.54,40.42 -24.09,145.67 -9.72,197.88 7.05,339.66 48.19,407.28 147.05,167.37 424.16,283.59 116.42,48.82 143.45,70.55 282.91,68.1l51.8 -89.4c94.86,232.95 23.86,685.33 86.12,940.42 35.59,145.79 49.38,1324.84 -3.5,1532.78 -22.44,88.25 -12.96,132.54 -20.02,226.33 -16.35,217.56 -125.15,486.38 -341.87,567.98 -109.79,41.34 -195.6,84.21 -346.14,62.32 -182.2,-26.51 -177.03,-151.15 -175.2,-336.44 1.76,-179.82 34.89,-306.03 37.01,-476.06 4.34,-348.64 3.46,-697.95 9.51,-1046.46 8.17,-470.25 8.44,-1081.25 -22.37,-1546.65 -11.48,-173.24 -41.16,-347.08 -23.97,-521.72 94.21,-93.93 381.92,-182.35 498.05,-44.87z"/>
  <path class="fil8" d="M-2723.56 13096.68l167.54 105.95c240.5,-124.54 912.13,-707.15 871.53,-937.15 -231.43,-530.02 -622.88,-1158.71 -928.85,-1586.56 -328.46,28.9 -804.15,56.57 -1133.19,220.63 -179.31,-48.22 -237.95,6.46 -518.69,60.58 -405.08,78.07 -647.11,28.32 -579.83,765.99 25.72,281.86 220.36,420.15 424.26,503.16 489.83,199.45 808.01,88.54 1435.9,-150.59l109.44 242.83 27.7 2.31 -56.93 127.7c-58.29,100.68 -8.19,57.04 -108.08,143.47 -116.57,-118.28 -61.04,-65.28 -97.44,-276.17l-421.62 137.02c217.54,456.58 204.18,417 678.22,602.5 95.07,37.2 25.51,16.26 130.04,38.33zm-1413.4 -351.38l578.89 523.53c107.46,64.45 16.15,17.08 113.17,38.08 155.54,83.91 184.47,52.12 372.8,80.03 142.28,21.08 229.58,45.3 363.49,88.29 335.85,107.8 474.89,-76.98 920.94,-230.56 245.13,-67.6 189.36,-23.46 287.87,-179.7 -146.95,-123.21 -54.05,-116.43 -264.65,-44.34 -211.77,-144.96 -488.69,248.23 -785.82,369.16 -938.67,-547.13 -735.32,-127.09 -1139.22,-889.99 -508.35,24.05 -652.55,-132.47 -1032.58,-242.55 95.87,293.02 342.23,430.07 585.11,488.05zm2473.57 -1731.43c-142.07,-81.2 80.79,-12.57 -167.93,-70.19l-414.08 -32.1 413.65 688.37 197.78 -28.61c615.72,24.34 2538.41,317.05 2274.77,-541.02 -88.16,-20.53 -997.63,49.5 -1201.17,45.2 -307.5,-6.51 -895.76,-123.84 -1103.02,-61.65zm2255.06 716.44c-596.01,255.8 -1613.94,152.39 -2162.4,107.74 183.37,427.25 286.2,587.31 -22.4,829.96l45.74 106.57c287.18,-16.7 266.66,177.4 312.41,433.85 -258.35,295.73 -382.48,227.27 -936.32,464.97 -321.17,137.85 -118.45,203.48 -555.04,64.59 -219.12,-69.7 -330.26,-93.18 -577.42,-103.48 -594.86,-24.77 -192.06,-103.24 -977.89,-646.97 -231.16,-159.94 -932.81,-298.56 -825.91,-1546.54 22.74,-265.45 100.02,-390.43 140.32,-606.27 223.33,-74.6 480.23,-101.05 721.02,-147l1515.34 -256.47c296.23,-0.6 270.86,150.1 620.62,214.94 660.98,122.55 2188.47,294.8 2815.58,25.65 275.45,374.37 413.01,832.42 -113.65,1058.46z"/>
  <path class="fil1" d="M-1633.98 11571.35c-173.3,-265.51 -235.62,-341.48 -29.42,-557.47 207.26,-62.2 795.54,55.13 1103.02,61.64 203.55,4.29 1113.02,-65.72 1201.18,-45.19 263.64,858.07 -1659.05,565.36 -2274.78,541.02zm-153.69 1673.33c-446.06,153.58 -585.09,338.35 -920.94,230.54 -133.92,-42.97 -221.21,-67.2 -363.49,-88.29 -188.33,-27.89 -217.26,3.9 -372.79,-80.02 40.47,-152.87 -189.23,-325.35 -308.1,-419.13 -51.07,-40.29 -154.31,-108.93 -216.58,-142.18 -201.35,-107.52 -137.06,-108.94 -167.39,-0.3 -242.88,-57.98 -489.25,-195.03 -585.11,-488.04 380.02,110.07 524.23,266.59 1032.58,242.54 403.9,762.89 200.54,342.86 1139.22,889.99 297.13,-120.93 574.04,-514.12 785.83,-369.16l-422.93 281.37c84.23,-34.85 116.54,-58.87 210.47,-72.48 306.84,-44.43 46.01,-8.81 189.23,15.16zm-935.88 -148.01c-104.53,-22.06 -34.98,-1.11 -130.04,-38.33 -474.05,-185.48 -460.69,-145.92 -678.23,-602.49l421.62 -137.03c36.41,210.9 -19.14,157.9 97.44,276.17 99.89,-86.43 49.79,-42.77 108.08,-143.45l56.94 -127.71c51.38,319.06 20.73,245.75 -199.44,417.43 330.23,397.4 528.49,-166.17 735.62,-344.46 -13.69,380.45 -209.18,453.36 -411.99,699.87zm1089.57 -1525.32l-197.76 28.6 -413.66 -688.37 414.07 32.11c248.72,57.61 25.87,-11.02 167.93,70.19 -206.2,215.99 -143.88,291.96 29.42,557.47zm-639.44 540.85c-222.41,-85.49 -60.36,-57.53 -180.28,-336.93 -211.15,-492 -339.48,-346.04 -555.95,-570.16l390.92 -53.11c91.02,219.13 383,780.98 345.31,960.2zm-1473.11 -1212.65c-1068.24,387.74 -666.24,1413.65 321.46,1146.44 567.09,-153.42 469.3,-144.98 545.09,33.65 138.77,326.91 27.31,152.74 4.54,241.88l-109.44 -242.84c-627.89,239.14 -946.08,350.04 -1435.91,150.6 -203.91,-83.01 -398.55,-221.3 -424.26,-503.16 -67.28,-737.67 174.75,-687.92 579.83,-766 280.74,-54.11 339.37,-108.78 518.69,-60.57zm1473.11 1212.65c37.69,-179.22 -254.29,-741.07 -345.31,-960.2l-390.92 53.11c216.47,224.12 344.8,78.16 555.95,570.16 119.92,279.4 -42.13,251.44 180.28,336.93zm-450.13 984.47c202.81,-246.51 398.3,-319.42 411.99,-699.87 -207.13,178.29 -405.39,741.86 -735.62,344.46 220.17,-171.68 250.82,-98.37 199.44,-417.43l-27.7 -2.31c22.77,-89.14 134.23,85.03 -4.54,-241.88 -75.79,-178.63 22,-187.07 -545.09,-33.65 -987.7,267.21 -1389.7,-758.7 -321.46,-1146.44 329.04,-164.06 804.73,-191.73 1133.19,-220.63 305.97,427.85 697.42,1056.54 928.85,1586.56 40.6,230 -631.03,812.6 -871.53,937.15l-167.53 -105.96zm-1413.41 -351.37c30.33,-108.64 -33.96,-107.22 167.39,0.3 62.27,33.25 165.51,101.89 216.58,142.18 118.87,93.78 348.57,266.26 308.1,419.13 -97.03,-21.01 -5.72,26.37 -113.18,-38.08l-578.89 -523.53zm2349.29 499.38c-143.22,-23.97 117.61,-59.59 -189.23,-15.16 -93.93,13.61 -126.24,37.63 -210.47,72.48l422.93 -281.37c210.6,-72.09 117.69,-78.87 264.64,44.33 -98.51,156.26 -42.73,112.11 -287.87,179.72z"/>
  <g id="_1433392311248">
   <path class="fil8" d="M7383.1 8174.58c394.59,-23.55 338.58,-718.67 -167.22,-1110.52 -260.93,-202.15 -348.06,-155.9 -416.68,-354.79 -61.15,-177.16 38.54,125.42 -15.94,-68.23 -28.73,-102.1 10.62,10.93 -29.08,-98.94 -266.96,-738.71 -1416.11,-853 -1920.48,-555.59 -489.85,288.85 -269.65,501.92 -666.04,660.84 -99.37,39.83 -117.62,43.83 -213.78,93.73 -233.92,121.36 -392.66,204.01 -554.38,413.45 -237.19,307.15 -226.38,500.25 -108.45,810.68 193.98,283.29 360.91,279.97 723.1,208.96 236.14,-48.24 515.65,-69.95 768.31,-121.74 214.39,-43.95 352.9,-141.05 492.61,15.82 209.42,235.18 377.01,564.75 755.52,732.44 594.4,263.33 602.81,-292.12 820.13,-573.67 31.25,-2.34 474.79,-29.17 532.38,-52.44zm-1628.64 -162.98c-301.82,-152.16 -79.46,-546.7 -955.35,-353.92 -248.47,54.69 -918.79,200.14 -1124.31,170.04 -320.02,-627.75 782.37,-762.37 1003.2,-1001.56 126.76,-342.27 260.28,-511.17 579.85,-556.12 145.72,-80.44 408.91,-33.53 603.65,13.1l266.81 116.27c218.77,150.31 295.93,277.01 290.19,584.16 63.42,150.69 145.14,139.91 354.53,257.04 168.3,94.15 253.01,180.82 368.35,295.67 119.93,125.19 64.24,1.14 91.41,228.22 -11.46,4.16 -27.58,-5.38 -35.94,6.66l-110.19 2.43c-81.48,-12.45 -94.17,-29.2 -150.39,-47.35 -130.65,-42.17 -217.73,-52.17 -324.12,-45.63 -111.39,181.7 -176.78,552.82 -314.76,808.82 -269.79,-98.64 -442.44,-268.14 -542.93,-477.83z"/>
   <path class="fil9" d="M5885.59 7147.29c-130.99,16.35 -279,25.03 -432.24,9.81 -183.33,-18.19 -334.1,-35.11 -430.76,-146.5 -240.3,-38.79 -179.32,-74.52 -344.59,-184.44 -220.83,239.19 -1323.22,373.81 -1003.2,1001.56 205.52,30.1 875.84,-115.35 1124.31,-170.04 875.89,-192.78 653.53,201.76 955.35,353.92 257.26,93.89 364.01,36.42 515.6,-111.55 56.62,-310.37 -43.37,-396.78 156.27,-615.49 377.44,-15.84 369.17,117.03 540.89,226.94 289.54,185.31 83.97,79.21 174.16,24.78 -115.34,-114.85 -200.05,-201.52 -368.35,-295.67 -209.39,-117.13 -291.11,-106.35 -354.53,-257.04 -228.9,92.56 -259.66,171.93 -532.91,163.72z"/>
   <path class="fil10" d="M5754.46 8011.6c100.49,209.69 273.14,379.19 542.93,477.83 137.98,-256 203.37,-627.12 314.76,-808.82 106.39,-6.54 193.47,3.46 324.12,45.63 56.22,18.15 68.91,34.9 150.39,47.35l110.19 -2.43c8.36,-12.04 24.48,-2.5 35.94,-6.66 -27.17,-227.08 28.52,-103.03 -91.41,-228.22 -90.19,54.43 115.38,160.53 -174.16,-24.78 -171.72,-109.91 -163.45,-242.78 -540.89,-226.94 -199.64,218.71 -99.65,305.12 -156.27,615.49 -151.59,147.97 -258.34,205.44 -515.6,111.55z"/>
   <path class="fil11" d="M4678 6826.16c165.27,109.92 104.29,145.65 344.59,184.44 283.69,38.2 627.34,208.43 515.61,-331.67 -6.92,-33.44 -12.09,-28.59 -18.88,-87.55 -4.03,-34.95 -31.18,-196.31 13.41,-265.96l-294.43 34.79c-24.28,-59.97 -25.61,7.89 19.55,-90.17 -319.57,44.95 -453.09,213.85 -579.85,556.12z"/>
   <path class="fil12" d="M5257.85 6270.04c-45.16,98.06 -43.83,30.2 -19.55,90.17l294.43 -34.79c-44.59,69.65 -17.44,231.01 -13.41,265.96 6.79,58.96 11.96,54.11 18.88,87.55 111.73,540.1 -231.92,369.87 -515.61,331.67 96.66,111.39 247.43,128.31 430.76,146.5 153.24,15.22 301.25,6.54 432.24,-9.81 134.23,-119.46 184.61,-165.55 248.76,-326.4l-204.56 108.63c-34.39,-178.34 62.45,35.91 -77.87,-238.98 -23.81,-97.81 -61.32,-142.99 -93,-270.15 41.78,-81.07 45.36,-86.64 102.58,-137.25 -194.74,-46.63 -457.93,-93.54 -603.65,-13.1z"/>
   <path class="fil13" d="M5851.92 6690.54c140.32,274.89 43.48,60.64 77.87,238.98l204.56 -108.63c-64.15,160.85 -114.53,206.94 -248.76,326.4 273.25,8.21 304.01,-71.16 532.91,-163.72 5.74,-307.15 -71.42,-433.85 -290.19,-584.16l80.67 262.77c-163.06,129.86 -166.02,99.73 -357.06,28.36z"/>
   <path class="fil9" d="M5851.92 6690.54c191.04,71.37 194,101.5 357.06,-28.36l-80.67 -262.77 -266.81 -116.27c-57.22,50.61 -60.8,56.18 -102.58,137.25 31.68,127.16 69.19,172.34 93,270.15z"/>
  </g>
  <path class="fil14" d="M-3746.53 10899.55c-1068.24,387.74 -666.24,1413.65 321.46,1146.43 567.08,-153.41 469.29,-144.98 545.1,33.65 138.76,326.91 27.3,152.74 4.52,241.89l-109.44 -242.83c-627.89,239.13 -946.07,350.04 -1435.9,150.59 -203.9,-83.01 -398.54,-221.3 -424.26,-503.16 -67.28,-737.67 174.75,-687.92 579.83,-765.99 280.74,-54.12 339.38,-108.8 518.69,-60.58z"/>
  <path class="fil14" d="M-1787.67 13244.67c-446.05,153.58 -585.09,338.36 -920.94,230.56 -133.91,-42.99 -221.21,-67.21 -363.49,-88.29 -188.33,-27.91 -217.26,3.88 -372.8,-80.03 40.48,-152.88 -189.22,-325.34 -308.09,-419.13 -51.07,-40.29 -154.31,-108.93 -216.58,-142.18 -201.35,-107.52 -137.05,-108.95 -167.39,-0.3 -242.88,-57.98 -489.24,-195.03 -585.11,-488.05 380.03,110.08 524.23,266.6 1032.58,242.55 403.9,762.9 200.55,342.86 1139.22,889.99 297.13,-120.93 574.05,-514.12 785.82,-369.16l-422.92 281.36c84.23,-34.85 116.54,-58.85 210.47,-72.46 306.85,-44.44 46,-8.82 189.23,15.14z"/>
  <path class="fil14" d="M-2723.56 13096.68c-104.53,-22.07 -34.97,-1.13 -130.04,-38.33 -474.04,-185.5 -460.68,-145.92 -678.22,-602.5l421.62 -137.02c36.4,210.89 -19.13,157.89 97.44,276.17 99.89,-86.43 49.79,-42.79 108.08,-143.47l56.93 -127.7c51.39,319.07 20.74,245.75 -199.43,417.43 330.24,397.39 528.49,-166.18 735.61,-344.46 -13.68,380.46 -209.18,453.36 -411.99,699.88z"/>
  <path class="fil14" d="M-1633.97 11571.34l-197.78 28.61 -413.65 -688.37 414.08 32.1c248.72,57.62 25.86,-11.01 167.93,70.19 -206.2,216 -143.88,291.97 29.42,557.47z"/>
  <path class="fil14" d="M-2273.42 12112.2c-222.41,-85.5 -60.36,-57.53 -180.28,-336.93 -211.16,-491.99 -339.49,-346.05 -555.95,-570.15l390.91 -53.12c91.03,219.13 383,780.97 345.32,960.2z"/>
 </g>
</svg>
