<?xml version="1.0" standalone="no"?>
<!DOCTYPE svg PUBLIC "-//W3C//DTD SVG 20010904//EN"
 "http://www.w3.org/TR/2001/REC-SVG-20010904/DTD/svg10.dtd">
<svg version="1.0" xmlns="http://www.w3.org/2000/svg"
 width="150.000000pt" height="166.000000pt" viewBox="0 0 150.000000 166.000000"
 preserveAspectRatio="xMidYMid meet">
	<g transform="translate(0.000000,166.000000) scale(0.100000,-0.100000)" fill="white" stroke="none">
		<path d="M573 1649 c-108 -21 -205 -93 -253 -189 -22 -44 -37 -60 -68 -74 -50
		-23 -106 -80 -127 -128 -30 -74 -15 -167 37 -225 20 -21 20 -24 4 -161 -21
		-186 -20 -311 8 -533 24 -199 34 -231 84 -251 40 -16 187 -11 222 7 35 18 39
		30 48 160 l7 100 47 9 c33 6 56 6 73 -2 25 -12 25 -12 25 -145 0 -158 5 -169
		87 -193 67 -19 161 -14 216 12 51 25 68 67 80 205 l10 117 33 -5 c50 -8 132
		16 170 49 46 40 64 106 71 253 6 136 -16 351 -45 437 -23 70 -53 90 -144 97
		l-72 6 -18 85 c-47 223 -158 337 -360 370 -71 11 -76 11 -135 -1z m210 -54
		c224 -66 301 -323 268 -895 -6 -107 -16 -271 -21 -364 -15 -262 -23 -276 -158
		-283 -60 -3 -85 0 -112 14 -32 17 -36 22 -42 78 -4 33 -5 86 -1 117 11 113 -9
		138 -110 138 -59 0 -75 -4 -94 -22 -21 -20 -23 -30 -23 -118 0 -127 -6 -135
		-103 -145 -88 -8 -143 9 -152 47 -17 75 -45 376 -45 480 0 111 12 255 25 315
		5 22 6 22 43 6 20 -10 39 -19 41 -20 2 -2 -3 -11 -12 -21 -41 -45 -6 -111 73
		-137 48 -16 90 -54 90 -81 0 -7 5 -23 11 -36 60 -131 103 -169 174 -149 62 16
		165 82 182 115 12 24 13 37 4 66 -17 57 -13 121 9 163 24 45 25 61 4 81 -34
		35 -123 8 -191 -56 l-32 -31 -57 24 -57 24 64 7 c214 21 332 159 275 321 -49
		137 -147 187 -369 187 l-129 0 25 43 c34 57 102 113 168 137 64 24 161 22 252
		-5z m-98 -254 c60 -35 65 -41 65 -76 0 -67 -77 -123 -202 -145 -76 -14 -162
		-5 -251 26 -83 28 -127 58 -127 86 0 45 65 102 150 132 8 3 85 4 170 3 142 -2
		158 -4 195 -26z m538 -202 c36 -16 54 -68 72 -204 26 -203 18 -401 -21 -477
		-20 -38 -69 -61 -134 -62 l-55 -1 5 180 c3 99 5 268 5 375 0 118 4 198 10 203
		13 10 84 1 118 -14z m-419 -205 c21 -8 20 -28 -1 -61 -19 -29 -24 -123 -9
		-185 7 -33 5 -40 -20 -64 -34 -32 -140 -84 -170 -84 -25 0 -74 36 -74 53 0 7
		-11 28 -24 48 -14 20 -27 52 -31 71 -8 44 -36 71 -95 94 -53 20 -76 38 -83 64
		-15 56 92 52 233 -9 52 -22 98 -41 103 -41 4 0 7 8 7 19 0 18 42 52 105 85 35
		18 38 18 59 10z"/>
	</g>
</svg>
